<svg width="14" height="11" viewBox="0 0 14 11" fill="none" xmlns="http://www.w3.org/2000/svg">
<path d="M2.61078 5.82916C1.62141 4.10018 0.995474 2.75768 0.732986 1.80166C0.470499 0.825294 0.470499 0.255748 0.753178 0.0726795C1.03586 -0.110389 1.48007 0.113361 2.12619 0.743931C2.77231 1.3745 3.51939 2.45257 4.38762 3.9578C6.12408 6.94791 7.84035 6.94791 9.55661 3.9578C11.2931 0.967681 12.5046 -0.334139 13.2314 0.0726797C13.4535 0.215066 13.5141 0.581204 13.4132 1.17109C13.292 1.76098 13.0699 2.45257 12.7065 3.26621C12.343 4.07984 11.919 4.93416 11.394 5.82916C10.8691 6.72416 10.3441 7.55814 9.79891 8.3311C9.21336 9.10405 8.68838 9.73462 8.20379 10.2228C7.7192 10.711 7.29518 10.9551 6.97212 10.9551C6.02312 10.9551 4.56935 9.24644 2.61078 5.82916Z" fill="white"/>
</svg>
