<svg width="14" height="11" viewBox="0 0 14 11" fill="none" xmlns="http://www.w3.org/2000/svg">
<path d="M11.3882 5.12591C12.3776 6.85489 13.0035 8.1974 13.266 9.15342C13.5285 10.1298 13.5285 10.6993 13.2458 10.8824C12.9632 11.0655 12.519 10.8417 11.8728 10.2111C11.2267 9.58058 10.4796 8.50251 9.6114 6.99728C7.87494 4.00716 6.15868 4.00716 4.44241 6.99728C2.70595 9.9874 1.49447 11.2892 0.767581 10.8824C0.545475 10.74 0.484902 10.3739 0.585859 9.78399C0.707007 9.1941 0.929112 8.50251 1.29256 7.68887C1.656 6.87523 2.08002 6.02092 2.605 5.12591C3.12997 4.23091 3.65495 3.39694 4.20011 2.62398C4.78566 1.85102 5.31064 1.22046 5.79523 0.732273C6.27982 0.244091 6.70384 -2.95341e-07 7.02691 -2.81219e-07C7.9759 -2.39737e-07 9.42968 1.70864 11.3882 5.12591Z" fill="white"/>
</svg>
